<?xml version="1.0" encoding="utf-8"?>
<!-- Generator: Adobe Illustrator 24.0.2, SVG Export Plug-In . SVG Version: 6.00 Build 0)  -->
<svg version="1.1" id="Capa_1" xmlns="http://www.w3.org/2000/svg" xmlns:xlink="http://www.w3.org/1999/xlink" x="0px" y="0px"
	 viewBox="0 0 1080 1080" style="enable-background:new 0 0 1080 1080;" xml:space="preserve">
<style type="text/css">
	.st0{fill:url(#SVGID_1_);}
	.st1{fill:url(#SVGID_2_);}
	.st2{fill:url(#SVGID_3_);}
	.st3{fill:url(#SVGID_4_);}
	.st4{fill:url(#SVGID_5_);}
	.st5{fill:url(#SVGID_6_);}
</style>
<g>
	<linearGradient id="SVGID_1_" gradientUnits="userSpaceOnUse" x1="590.1946" y1="473.9944" x2="590.1946" y2="673.3376">
		<stop  offset="0.1676" style="stop-color:#EBBD01"/>
		<stop  offset="1" style="stop-color:#C99129"/>
	</linearGradient>
	<path class="st0" d="M743.1,566.88c-6.22,0.16-12.17,0.79-18.06-0.73c-2.36-0.61-4.71-3.08-6.85-1.93
		c-1.95,1.05-3.01,3.78-4.44,5.78c-9.18,12.77-18.37,25.55-27.55,38.32c-2.51,3.5-5.29,6.75-8.45,9.69
		c-9,8.36-14.66,8.52-26.91,2.63c-9.77-4.69-10.98-5.43-15.71-11.5c-3.71-5.79-7.5-23.58-4.57-30.31c1.32-3.04,1.02-6.83,1.18-10.3
		c0.06-1.24-1.3-0.95-2.18-0.83c-4.76,0.67-9.52,1.31-14.27,2.06c-3.33,0.53-5.59,2.61-7.21,5.46
		c-5.34,9.41-11.31,18.37-18.41,26.56c-1.46,1.68-14.07,15.88-16.89,18.22c-6.22,5.15-12.81,9.78-19.73,13.95
		c-15.4,9.29-33.92,3.26-43.74-5.8c-9.58-8.84-15.12-19.65-16.47-33.33c-4.27,5.65-8,10.87-12.02,15.86
		c-12.75,15.86-26.86,30.4-43.13,42.68c-8.55,6.45-18.03,10.91-29.14,10.55c-6.9-0.22-12.39-2.81-16.63-8.57
		c-8.65-11.76-11.4-24.97-10.57-39.21c0.25-4.25,0.6-8.5,0.93-13.03c-1.98,0.35-2.41,1.86-3.18,2.92
		c-9.46,13.05-18.32,26.57-29.53,38.27c-9.11,9.51-19.06,17.92-30.76,24.15c-3.16,1.68-5.55,4.75-9.54,4.88
		c-8.14,0.27-14.41-3.13-18.66-9.92c-5.97-9.52-7.48-19.94-4.72-30.76c1.85-7.23,3.88-14.3,7.58-21.11
		c3.33-6.13,5.11-13.28,8.17-19.75c3.51-7.4,6.98-14.82,10.45-22.24c0.37-0.8,1.03-1.54,0.73-2.42c-3.78,0-7.51,0.09-11.23-0.02
		c-5.32-0.16-10.27-1.63-14.57-4.87c-1.23-0.93-5.08-2.74-7.44-8.34c-1.72-3.16-3.32-9.29-1.41-17.87
		c1.96-8.78,6.49-15.76,14.01-20.79c6.6-4.42,13.46-3.16,20.11-0.56c2.47,0.96,4.31,3.63,3.19,6.79c-1.19,3.39-1.72,6.75-5.41,9.31
		c-3.68,2.55-5.56,7.44-6.68,12.07c-0.63,2.64,1.36,4.23,3.29,5.21c3.58,1.81,7.29,2.6,11.57,2.39c8.31-0.4,16.67,0.38,24.11,4.8
		c4.21,2.5,5.52,6.72,3.53,12.36c-1.68,4.77-3.65,9.48-5.95,13.99c-7.82,15.34-13.85,31.4-19.68,47.55
		c-1.63,4.52-3.57,8.94-5.24,13.44c-0.58,1.57-1,3.26-1.12,4.92c-0.23,3.21,1,4.06,3.99,2.96c0.85-0.31,1.67-0.74,2.44-1.22
		c6-3.71,11.87-7.75,16.42-13.08c3.66-4.3,6.4-9.39,9.96-13.87c13.59-17.11,26.7-34.59,39.78-52.08c2.73-3.66,3.73-7.97,5.43-12.03
		c1.35-3.21,2.25-6.63,5.17-9.01c0.81-0.66,1.13-2.01,1.5-3.11c5.17-15.1,11.87-29.47,21.95-41.9c7.09-8.75,15.38-16.35,27.07-18.63
		c8.43-1.64,15.82,1.63,20.44,8.87c8.27,12.98,9.14,26.83,4.48,41.18c-1.88,5.8-9.72,11-15.83,10.96c-4.79-0.03-6.78-2.98-5.37-7.64
		c2.15-7.09,4.29-14.18,6.18-21.34c0.9-3.41,0.76-6.97,0.03-10.46c-0.31-1.47-0.15-3.3-2.09-3.84c-2.13-0.6-3.37,0.82-4.59,2.23
		c-3.33,3.86-6.2,8.06-8.41,12.64c-14.76,30.55-25.45,62.33-28.55,96.33c-0.61,6.74-0.49,13.53,1.59,20.11
		c1.9,5.99,5.6,7.78,11.41,5.29c7.02-3.01,12.62-8.2,18.76-12.56c5.75-4.09,10.24-9.22,14.46-14.98
		c7.74-10.57,17.03-20.01,24.77-30.59c9.35-12.77,20-24.53,28.44-38.02c6.5-10.38,15.45-18.56,26.69-23.91
		c1.4-0.67,2.86-1.49,4.35-1.66c5.88-0.69,8.61-4.16,10.21-9.64c3.39-11.63,10.9-20.68,19.95-28.3c10.5-8.84,21.84-8.07,33.31,1.18
		c5.19,4.18,9.79,8.85,13.45,14.37c4.86,7.32,4.4,15.59,3.56,23.8c-1.2,11.7-4.39,22.97-7.65,34.21c-1.12,3.87-0.95,3.64,3.11,3.35
		c10.31-0.74,16.56-4.44,19.76-15.75c4.68-16.55,23.32-19.64,35.87-7.28c1.32,1.3,1.91,2.77,1.42,4.58c-1,3.7-2.43,7.2-5.74,9.47
		c-2.55,1.75-4.09,4.51-4.38,7.12c-0.55,5-3.16,9-5.03,13.36c-3.28,7.66-6.67,15.26-8.38,23.47c-0.26,1.27-0.46,2.57-0.5,3.86
		c-0.1,2.99-0.44,6.18,2.64,8.05c3.19,1.93,6.13,0.29,8.76-1.32c6.91-4.2,12.73-9.87,19.23-14.63c1.47-1.07,10.09-13.56,10.8-14.64
		c4.37-6.62,9.49-12.48,14.3-18.99c1.15-1.55,2.32-2.82,1.3-4.85c-5.96-11.83-1.1-21.51,6.63-30.14c6.76-7.54,15.77-9.11,24.9-5.03
		c2.28,1.02,4.24,3.07,3.7,5.86c-0.72,3.73-1.59,7.16-5.14,9.97c-3.8,3.01-5.91,7.83-7.11,12.72c-0.43,1.76,0.68,3.03,1.9,4.01
		c3.37,2.72,7.44,4.13,11.61,3.73c6.98-0.66,13.73,0.1,20.31,2.17c9.2,2.89,11.56,8.57,7.75,17.52
		c-5.39,12.69-12.06,24.8-16.92,37.72c-4.39,11.68-8.83,23.35-13.15,35.06c-0.88,2.39-2.28,5.47,0.06,7.25
		c2.22,1.68,4.59-0.78,6.61-2c4.91-2.96,9.19-6.79,13.64-10.38c2.89-2.33,3.88-5.78,6-8.54c12.61-16.38,25.14-32.84,37.75-49.22
		c2.98-3.87,5.02-7.96,5.96-12.89c1.87-9.84,4.64-19.48,8.43-28.79c3.84-9.43,11.42-13.33,21.31-11.03
		c4.62,1.07,8.87,2.98,12.78,5.64c2.45,1.66,3.24,3.82,2.19,6.76c-1.12,3.13-2.78,5.77-5.18,8.11c-2.79,2.72-7.56,16.31-9,19.36
		c-3.22,6.83-6.11,13.78-8.21,21.06c-1.02,3.54-1.58,7.12-1.22,10.79c0.43,4.41,3.5,6.42,7.67,5.03c2.74-0.92,5.24-2.34,7.48-4.13
		c7.11-5.68,25.29-25.51,26.08-26.69c4.62-6.92,9.45-13.7,15.14-19.82c0.44-0.48,0.89-0.96,1.39-1.37c2.09-1.67,4.41-3.28,7.05-1.66
		c2.57,1.59,2.5,4.39,1.96,7.03c-0.65,3.24-2.15,6.15-4.05,8.81c-10.6,14.8-21.25,29.57-31.87,44.35c-2.37,3.3-5.28,6.11-8.3,8.77
		c-5.11,4.5-10.8,6.34-17.65,4.12c-7.36-2.38-13.93-5.62-18.29-12.4c-1.96-3.05-4.57-5.68-6.59-8.7c-1.87-2.79-2.98-2.32-4.74,0.15
		c-7.16,10.07-14.41,20.07-21.77,29.99c-10.04,13.53-22.59,24.48-36.63,33.52c-3.98,2.56-7.72,6.41-12.83,6.92
		c-7.92,0.79-14.28-2.27-18.77-8.83c-5.7-8.32-7.61-17.67-6.21-27.53c1.02-7.21,2.91-14.31,5.91-20.98
		c7.06-15.71,13.56-31.69,21.5-47C742.74,568.34,742.84,567.71,743.1,566.88z M521.41,608.51c-0.1,11.9,3.73,15.04,13.09,13.08
		c2.94-0.62,5.76-1.6,8.44-2.96c8.33-4.23,15.39-10,21.58-17.02c7.63-8.65,13.59-18.36,19.22-28.33c1.49-2.63,0.78-3.5-2.12-4.01
		c-3.95-0.7-7.89-1.75-11.65-3.14c-8.64-3.19-15.94-8.16-20.27-16.68c-0.62-1.22-0.46-3.39-2.04-3.44
		c-1.66-0.06-2.12,2.05-2.93,3.32c-6.77,10.71-10.92,22.66-15.97,34.19C524.97,592.21,521.87,601.19,521.41,608.51z M564.2,543.76
		c-0.8,10.35,2.36,14.39,12.52,15.97c1.03,0.16,2.07,0.2,3.1,0.34c9.23,1.27,10.67,0.6,13.99-8.13c5.06-13.3,7.56-27.28,10.13-41.2
		c1.04-5.64,1.39-11.37-0.74-16.93c-1.61-4.2-4.88-6.55-8.32-5.16c-9.14,3.68-15.14,10.87-19.15,19.51c-1.32,2.83-1.82,6.22-3.47,9
		C567.41,525.4,564.8,534.27,564.2,543.76z"/>
	<linearGradient id="SVGID_2_" gradientUnits="userSpaceOnUse" x1="179.8096" y1="370.0757" x2="179.8096" y2="678.8369">
		<stop  offset="0.1676" style="stop-color:#EBBD01"/>
		<stop  offset="1" style="stop-color:#C99129"/>
	</linearGradient>
	<path class="st1" d="M203.52,536.1c-8.94,14.01-17.73,28.12-26.86,42.01c-11.08,16.83-22.08,33.73-34.85,49.37
		c-1.8,2.21-3.84,4.25-5.93,6.19c-8.87,8.22-18.62,9.07-27.66,1.12c-12.59-11.08-22.41-24.19-24.54-41.58
		c-1.49-12.19,0.97-24.02,3.14-35.95c3.96-21.79,11.1-42.43,20.28-62.51c2.57-5.63,7.31-9.79,9.39-15.56
		c6.94-19.28,17.48-36.73,28.29-53.92c9.06-14.41,19.46-28.01,31.79-39.87c17.58-16.91,30.47-19.47,54.3-9.37
		c12.33,5.22,22.67,13.7,31.93,23.34c4.83,5.04,4.69,10.63-0.26,15.5c-2.02,1.99-4.32,3.79-6.74,5.27c-7.7,4.7-10.2,2.51-14.23-4.99
		c-2.36-4.39-3.16-9.6-4.75-14.42c-1.99-6.02-4.43-7.51-10.52-6.17c-9.64,2.12-17.68,7.18-24.9,13.8c0.91,0.89,1.5-0.56,2.25,0.03
		c0.3,0.79-0.35,1.2-0.81,1.55c-14.45,10.74-23.78,25.69-32.89,40.67c-26.34,43.32-42.98,90.23-50.89,140.26
		c-0.65,4.09-1.37,8.22-1.17,12.41c0.09,1.92-0.28,4.12,1.75,5.27c2.18,1.22,4.03-0.24,5.74-1.35c5.73-3.74,10.04-9.02,14.73-13.87
		c4.34-4.48,8.43-9.2,12.76-13.69c10.55-10.93,17.13-24.66,26.08-36.73c16.8-22.67,31.99-46.48,47.66-69.95
		c2.39-3.59,4.39-7.37,6.29-11.22c1.57-3.17,3.42-6.12,6.04-8.55c2.25-2.08,3.51-4.77,4.74-7.53c4.15-9.29,11.98-12.14,21.12-7.73
		c1.52,0.73,2.99,1.6,4.36,2.58c7.78,5.56,8.89,9.37,5.2,17.93c-1.82,4.22-4.29,7.97-7.82,11.04c-3.51,3.06-5.65,7.28-7.26,11.43
		c-6.03,15.49-12.83,30.66-18.09,46.46c-6.61,19.87-9.93,40.34-12.41,61.02c-1.64,13.67-3.08,27.37-5.11,40.99
		c-1.29,8.68,2.18,16.3,4.06,24.31c0.38,1.64,1.63,2.1,3.36,1.7c2.61-0.62,4.87-1.77,6.81-3.59c5.03-4.75,9.54-9.94,13.25-15.8
		c1.61-2.54,3.29-5,5.61-6.96c1.35-1.14,2.93-1.92,4.67-1.22c1.8,0.73,2.06,2.53,2.31,4.23c0.06,0.38,0.09,0.79,0.03,1.17
		c-2.38,13.85-5.95,27.26-15.69,38.02c-8.18,9.04-21.3,10.06-33.68,2.9c-11.25-6.52-16.64-17.15-20.08-29.06
		c-2.87-9.95-2.57-19.97-0.71-30.1c1.11-6.09,1.02-12.39,0.56-18.55c-0.47-6.25,1.11-12.13,2.08-18.14
		c2.26-14.06,3.36-28.35,8.24-41.93C204.16,536.26,203.84,536.18,203.52,536.1z M151.6,468.45c-15.84,30.19-26.82,62.02-31.05,96.02
		C128.63,531.75,138.31,499.56,151.6,468.45z M200.86,594.36c-2.78,9.12-2.63,18.5-2.32,27.89
		C200.04,613.02,202.31,603.85,200.86,594.36z"/>
	<linearGradient id="SVGID_3_" gradientUnits="userSpaceOnUse" x1="935.3977" y1="496.8402" x2="935.3977" y2="699.2419">
		<stop  offset="0.1676" style="stop-color:#EBBD01"/>
		<stop  offset="1" style="stop-color:#C99129"/>
	</linearGradient>
	<path class="st2" d="M897.89,699.24c-11.2-0.1-21.67-2.51-30.91-9.16c-4.61-3.31-7.6-7.72-9.35-13.09c-0.16-0.48-0.34-1-0.54-1.57
		c-2.61-7.37-2.28-15.57,1.31-22.52c2.08-4.04,4.8-6.59,8.22-10.16c11.86-12.41,25.46-22.57,40.43-30.91
		c1.36-0.76,2.66-1.63,3.97-2.46c3.92-2.48,5.18-5.9,3.9-10.39c-2.42-8.5-13.39-57.28-12.85-70.9
		c0.49-12.54,10.91-26.95,22.91-30.67c8.2-2.54,15.91,3.87,14.57,12.31c-0.67,4.19-1.71,7.95-4.53,11.83
		c-3.94,5.41-2.96,12.63-1.4,19.24c2.64,11.2,10.09,43.01,9.77,45.84c-0.36,3.15,0.98,4.15,3.48,2.86
		c17.46-8.94,35.32-17.21,50.59-29.89c2.59-2.15,5.35-4.13,8.19-5.95c2.24-1.44,4.82-2.41,7.26-0.46c2.36,1.89,2.87,4.59,2.3,7.44
		c-0.98,4.85-4.07,8.37-7.71,11.41c-8.51,7.09-18.02,12.79-27.06,19.14c-8.09,5.68-16.5,10.84-25.6,14.85
		c-6.67,2.95-7.11,4.37-5.98,11.55c2.63,16.65,3.08,33.21-3.69,49.1c-7.36,17.26-19.58,28.91-38.73,31.98
		C903.63,699.09,900.74,699.05,897.89,699.24z M881.17,677.07c2.51,0.12,4.94-0.4,7.33-0.99c9.66-2.4,17.32-6.77,22.02-16.56
		c4.35-9.04,6.8-18.15,7.13-28.01c0.06-1.91,0.51-4.31-1.45-5.33c-2.17-1.14-4.13,1.45-5.53,2.39c-2.37,1.59-4.25,3.25-6.6,4.88
		c-4.91,3.41-9.06,6.92-13.89,10.43c-8.47,6.17-15.34,13.66-18.43,23.97c-1.56,5.2,0.23,8,5.53,8.91
		C878.56,676.99,879.87,676.97,881.17,677.07z"/>
	<linearGradient id="SVGID_4_" gradientUnits="userSpaceOnUse" x1="679.3896" y1="446.4352" x2="679.3896" y2="513.9227">
		<stop  offset="0.1676" style="stop-color:#EBBD01"/>
		<stop  offset="1" style="stop-color:#C99129"/>
	</linearGradient>
	<path class="st3" d="M656.38,502.26c-0.12-3.08,0.56-5.48,3.08-7.33c2.82-2.08,11.21-20.18,13.19-26.37
		c1.05-3.27,0.38-5.33-1.38-9.25c-3-6.68,3.51-10.76,5-11.41c10.69-4.65,23.88,2.21,25.95,13.72c1.05,5.84-2.23,10.07-6.66,13.13
		c-3.27,2.26-21.05,28.19-27.41,36.66c-2.68,3.57-6.91,3.33-8.93-0.64C657.81,508,656.58,505.15,656.38,502.26z"/>
	<linearGradient id="SVGID_5_" gradientUnits="userSpaceOnUse" x1="850.4136" y1="487.4237" x2="850.4136" y2="513.7497">
		<stop  offset="0.1676" style="stop-color:#EBBD01"/>
		<stop  offset="1" style="stop-color:#C99129"/>
	</linearGradient>
	<path class="st4" d="M863.39,500.48c0.04,7.61-5.53,13.37-12.82,13.27c-7.32-0.1-13.19-6.02-13.13-13.23
		c0.06-7.04,5.92-13,12.87-13.1C857.64,487.32,863.35,493.03,863.39,500.48z"/>
</g>
</svg>
